<svg width="560" height="440" viewBox="0 0 560 440" fill="none" xmlns="http://www.w3.org/2000/svg">
  <defs>
    <linearGradient id="bg" x1="0" x2="560" y1="0" y2="440" gradientUnits="userSpaceOnUse">
      <stop stop-color="#FFF2FA"/>
      <stop offset="0.55" stop-color="#F7E9FF"/>
      <stop offset="1" stop-color="#FDF8FF"/>
    </linearGradient>
    <linearGradient id="hair" x1="190" x2="425" y1="80" y2="355" gradientUnits="userSpaceOnUse">
      <stop stop-color="#2F234B"/>
      <stop offset="0.5" stop-color="#69438E"/>
      <stop offset="1" stop-color="#D18CCE"/>
    </linearGradient>
    <radialGradient id="glow" cx="0" cy="0" r="1" gradientUnits="userSpaceOnUse" gradientTransform="translate(298 164) rotate(83) scale(230 265)">
      <stop stop-color="#FFFFFF"/>
      <stop offset="0.45" stop-color="#FFE8F7"/>
      <stop offset="1" stop-color="#FFFFFF" stop-opacity="0"/>
    </radialGradient>
    <filter id="shadow" x="100" y="36" width="380" height="390" filterUnits="userSpaceOnUse" color-interpolation-filters="sRGB">
      <feDropShadow dx="0" dy="18" stdDeviation="20" flood-color="#6B3B82" flood-opacity="0.18"/>
    </filter>
  </defs>
  <rect width="560" height="440" fill="url(#bg)"/>
  <circle cx="300" cy="190" r="210" fill="url(#glow)"/>
  <g opacity="0.75">
    <path d="M68 112c20-34 60-42 93-23 30 17 67 12 86-22" stroke="#FFD4E8" stroke-width="3" stroke-linecap="round"/>
    <path d="M408 71c31 11 53 34 62 66" stroke="#E6D9FF" stroke-width="4" stroke-linecap="round"/>
    <path d="M72 345c66-55 137-60 214-16 48 27 102 25 154-10" stroke="#EADFFF" stroke-width="3" stroke-linecap="round"/>
  </g>
  <g fill="#F58ABC" opacity="0.7">
    <path d="M92 72c5-13 24-7 19 8 14-8 24 9 11 18l-22 15-10-24c-4-7-2-13 2-17z"/>
    <path d="M469 143c4-10 18-5 14 6 10-6 18 7 8 14l-16 11-8-18c-2-5-1-10 2-13z"/>
    <path d="M151 39c3-7 13-3 10 5 8-4 13 6 6 11l-12 8-6-14c-2-4-1-8 2-10z"/>
  </g>
  <g filter="url(#shadow)">
    <path d="M210 134c-38 28-63 80-57 131 8 73 71 122 151 120 82-2 144-61 143-139-1-71-54-134-123-150-45-10-84 16-114 38z" fill="url(#hair)"/>
    <path d="M178 282c-31 11-57 37-78 78 73 23 153 25 241 10-22-50-55-84-98-101l-65 13z" fill="#FFF4FA"/>
    <path d="M207 159c-21 28-28 74-16 109 18 53 70 70 112 46 37-21 55-67 44-114-14-61-94-101-140-41z" fill="#FFD8E8"/>
    <path d="M205 199c32 1 65-12 94-43 18 36 42 63 74 80-3-80-58-143-130-139-50 3-91 49-90 104 19-14 36-22 52-2z" fill="#49315F"/>
    <path d="M216 237c10 14 30 14 40 0" stroke="#B35D8D" stroke-width="4" stroke-linecap="round"/>
    <circle cx="218" cy="218" r="6" fill="#5F3E75"/>
    <circle cx="294" cy="218" r="6" fill="#5F3E75"/>
    <path d="M255 222c3 18-2 28-14 30" stroke="#E89ABC" stroke-width="3" stroke-linecap="round"/>
    <path d="M285 278c44 18 77 49 100 91-67 19-139 23-217 11 22-47 58-82 117-102z" fill="#FFFFFF"/>
    <path d="M176 382c28-54 64-89 109-104 19 31 49 62 91 92-60 33-127 36-200 12z" fill="#F8E9FF"/>
    <rect x="255" y="246" width="100" height="126" rx="8" transform="rotate(10 255 246)" fill="#5B3F7A"/>
    <rect x="267" y="260" width="72" height="91" rx="4" transform="rotate(10 267 260)" fill="#7A5AA2"/>
    <path d="M248 296c-13-7-28-2-34 11-6 13 0 26 13 31 14 5 25-2 31-13l-10-29z" fill="#FFD8E8"/>
  </g>
</svg>
